# xmcd
# Track frame offsets:
# 150
# 16843
# 34980
# 49303
# 77740
# 91710
# 112281
# 124851
# 140940
# 156118
# 172077
# 193305
# 210239
# 227661
# 248839
# 268662
# 281117
#
# Disc length: 3914 seconds
# Revision: 0
# Processed by: cddbd v1.5.2PL0 Copyright (c) Steve Scherf et al.
# Submitted via: VisiTrax 2.10.3.257 - For more info visit www.synapsa.com
#
DISCID=fb0f4811
DTITLE=Various Artist - TexMix - Fall 2007
DYEAR=2007
DGENRE=Various
TTITLE0=Robin English - Mamas, Don't Let Your Cowboys Grow Up to Be Babies
TTITLE1=Gary Ritchey - For Dear Life
TTITLE2=Bill Rice - Seminole Sunday
TTITLE3=Ryan Bingham - South Side of Heaven
TTITLE4=Gene Watson - I Buried Our Love
TTITLE5=Johnny Cooper - Let It All Go
TTITLE6=Casey Berry and the Live Texas Mosquitos - Sister So Long
TTITLE7=John Arthur Martinez - You Could Have Heard a Tear Drop (Se Oyo Una La
TTITLE7=grima)
TTITLE8=Josh Grider - Crazy Like You
TTITLE9=Lucky Tomblin Band, The - Honky Tonk Song
TTITLE10=Daryl Lee Rush - Shotgun Annie
TTITLE11=Steve Bedunah - Down to This River
TTITLE12=Ben Morris and the Great American Boxcar Chorus - No Saving Grace
TTITLE13=Derailers, The - Big In Vegas
TTITLE14=Uncle Bill Roach Band, The - Back from Iraq
TTITLE15=Billy Joe Shaver f/Marty Stuart - Winning Again
TTITLE16=Wicked Brew Band - Memory Disappears
EXTD=Submitted by Larry@LosSenderosStudio.com
EXTT0=
EXTT1=
EXTT2=
EXTT3=
EXTT4=
EXTT5=
EXTT6=
EXTT7=
EXTT8=
EXTT9=
EXTT10=
EXTT11=
EXTT12=
EXTT13=
EXTT14=
EXTT15=
EXTT16=
PLAYORDER=
